<svg width="24" height="24" viewBox="0 0 24 24" fill="none" xmlns="http://www.w3.org/2000/svg">
<path d="M13.9774 1.5C13.5632 1.5 13.2274 1.83579 13.2274 2.25V2.57635C13.2274 2.99056 13.5632 3.32635 13.9774 3.32635C14.3916 3.32635 14.7274 2.99056 14.7274 2.57635V2.25C14.7274 1.83579 14.3916 1.5 13.9774 1.5Z" fill="url(#paint0_linear_27_834)"/>
<path d="M22.5004 10.023C22.5004 9.60874 22.1646 9.27295 21.7504 9.27295H21.424C21.0098 9.27295 20.674 9.60874 20.674 10.023C20.674 10.4372 21.0098 10.773 21.424 10.773H21.7504C22.1646 10.773 22.5004 10.4372 22.5004 10.023Z" fill="url(#paint1_linear_27_834)"/>
<path d="M19.7768 6.67465C19.5697 6.31593 19.6926 5.85724 20.0514 5.65013L20.334 5.48696C20.6927 5.27985 21.1514 5.40276 21.3585 5.76148C21.5656 6.12019 21.4427 6.57889 21.084 6.78599L20.8014 6.94917C20.4426 7.15627 19.9839 7.03337 19.7768 6.67465Z" fill="url(#paint2_linear_27_834)"/>
<path d="M18.2389 2.64184C17.8802 2.43473 17.4215 2.55764 17.2144 2.91636L17.0512 3.19898C16.8441 3.5577 16.967 4.01639 17.3257 4.2235C17.6845 4.43061 18.1432 4.3077 18.3503 3.94898L18.5134 3.66636C18.7205 3.30764 18.5976 2.84895 18.2389 2.64184Z" fill="url(#paint3_linear_27_834)"/>
<path d="M10.6291 4.2235C10.2704 4.43061 9.81169 4.3077 9.60458 3.94898L9.44141 3.66636C9.2343 3.30764 9.35721 2.84894 9.71593 2.64184C10.0746 2.43473 10.5333 2.55764 10.7404 2.91636L10.9036 3.19898C11.1107 3.5577 10.9878 4.01639 10.6291 4.2235Z" fill="url(#paint4_linear_27_834)"/>
<path d="M18.1155 10.0228C18.1155 10.9203 17.8328 11.7517 17.3516 12.4329C17.8926 12.474 18.4076 12.6083 18.8805 12.8198C19.3484 11.9941 19.6155 11.0397 19.6155 10.0228C19.6155 6.88478 17.0716 4.34088 13.9335 4.34088C11.6825 4.34088 9.73724 5.64984 8.81733 7.54813C8.816 7.55088 8.818 7.55408 8.82106 7.55408C9.37452 7.55408 9.91304 7.61808 10.4296 7.73908C11.1761 6.59617 12.4666 5.84088 13.9335 5.84088C16.2431 5.84088 18.1155 7.71321 18.1155 10.0228Z" fill="url(#paint5_linear_27_834)"/>
<path fill-rule="evenodd" clip-rule="evenodd" d="M9.375 21L9.40581 20.9999V21L9.52283 21L17.248 21H17.25C17.2509 21 17.2518 21 17.2526 21C19.2734 20.9985 21 19.2862 21 17.0625C21 14.8378 19.2719 13.125 17.25 13.125C16.7024 13.125 16.1763 13.2507 15.7003 13.4781C15.6355 12.9629 15.5137 12.4664 15.3416 11.9954L15.3432 11.9947C14.4277 9.4571 12.0729 7.6875 9.375 7.6875C5.90336 7.6875 3 10.6176 3 14.3438C3 18.0699 5.90336 21 9.375 21ZM17.431 22.4968C20.2467 22.398 22.5 20.0028 22.5 17.0625C22.5 14.0595 20.1495 11.625 17.25 11.625C17.1013 11.625 16.954 11.6314 16.8083 11.644C15.7325 8.4662 12.8107 6.1875 9.375 6.1875C5.02576 6.1875 1.5 9.83918 1.5 14.3438C1.5 18.8483 5.02576 22.5 9.375 22.5C9.42439 22.5 9.47367 22.4995 9.52283 22.4986V22.5H17.2455C17.247 22.5 17.2485 22.5 17.25 22.5C17.2515 22.5 17.253 22.5 17.2544 22.5H17.431V22.4968Z" fill="url(#paint6_linear_27_834)"/>
<defs>
<linearGradient id="paint0_linear_27_834" x1="15.6574" y1="1.5" x2="15.6574" y2="12.8198" gradientUnits="userSpaceOnUse">
<stop stop-color="#EFC977"/>
<stop offset="1" stop-color="#E07256"/>
</linearGradient>
<linearGradient id="paint1_linear_27_834" x1="15.6574" y1="1.5" x2="15.6574" y2="12.8198" gradientUnits="userSpaceOnUse">
<stop stop-color="#EFC977"/>
<stop offset="1" stop-color="#E07256"/>
</linearGradient>
<linearGradient id="paint2_linear_27_834" x1="15.6574" y1="1.5" x2="15.6574" y2="12.8198" gradientUnits="userSpaceOnUse">
<stop stop-color="#EFC977"/>
<stop offset="1" stop-color="#E07256"/>
</linearGradient>
<linearGradient id="paint3_linear_27_834" x1="15.6574" y1="1.5" x2="15.6574" y2="12.8198" gradientUnits="userSpaceOnUse">
<stop stop-color="#EFC977"/>
<stop offset="1" stop-color="#E07256"/>
</linearGradient>
<linearGradient id="paint4_linear_27_834" x1="15.6574" y1="1.5" x2="15.6574" y2="12.8198" gradientUnits="userSpaceOnUse">
<stop stop-color="#EFC977"/>
<stop offset="1" stop-color="#E07256"/>
</linearGradient>
<linearGradient id="paint5_linear_27_834" x1="15.6574" y1="1.5" x2="15.6574" y2="12.8198" gradientUnits="userSpaceOnUse">
<stop stop-color="#EFC977"/>
<stop offset="1" stop-color="#E07256"/>
</linearGradient>
<linearGradient id="paint6_linear_27_834" x1="12" y1="6.1875" x2="12" y2="22.5" gradientUnits="userSpaceOnUse">
<stop stop-color="#B2D4F7"/>
<stop offset="1" stop-color="#D9E2F3"/>
</linearGradient>
</defs>
</svg>
