<svg width="48" height="46" viewBox="0 0 48 46" fill="none" xmlns="http://www.w3.org/2000/svg">
<path fill-rule="evenodd" clip-rule="evenodd" d="M34.7022 24.8017C35.6646 23.4393 36.2299 21.7765 36.2299 19.9816C36.2299 15.3623 32.4853 11.6177 27.866 11.6177C24.9322 11.6177 22.3512 13.1282 20.8583 15.414C19.8251 15.1719 18.7481 15.0439 17.6411 15.0439L17.6279 15.044C19.4654 11.241 23.3593 8.61768 27.866 8.61768C34.1421 8.61768 39.2299 13.7055 39.2299 19.9816C39.2299 22.0152 38.6957 23.9241 37.76 25.5756C36.8142 25.1525 35.7843 24.8838 34.7022 24.8017Z" fill="url(#paint0_linear_27_914)"/>
<path fill-rule="evenodd" clip-rule="evenodd" d="M18.75 41.936L18.8116 41.9359V41.936H19.0457H27.2586H27.2587H34.496H34.5001C38.5439 41.936 42.0001 38.5104 42.0001 34.061C42.0001 29.6117 38.5439 26.186 34.5001 26.186C33.4049 26.186 32.3527 26.4373 31.4007 26.8922C31.2712 25.8619 31.0276 24.8688 30.6834 23.9268C30.94 23.8231 31.2015 23.7295 31.4674 23.6465C31.2025 23.7291 30.9421 23.8223 30.6865 23.9255C28.8554 18.8502 24.1459 15.311 18.75 15.311C11.8067 15.311 6 21.1711 6 28.6235C6 36.0759 11.8067 41.936 18.75 41.936ZM34.8621 44.9297C40.4935 44.7321 45.0001 39.9417 45.0001 34.061C45.0001 28.0549 40.2991 23.186 34.5001 23.186C34.2026 23.186 33.9079 23.1988 33.6167 23.224C31.4649 16.8684 25.6213 12.311 18.75 12.311C10.0515 12.311 3 19.6144 3 28.6235C3 37.6327 10.0515 44.936 18.75 44.936C18.8488 44.936 18.9473 44.9351 19.0457 44.9332V44.936H34.5001H34.8621V44.9297Z" fill="url(#paint1_linear_27_914)"/>
<defs>
<linearGradient id="paint0_linear_27_914" x1="28.429" y1="8.61768" x2="28.429" y2="25.5756" gradientUnits="userSpaceOnUse">
<stop stop-color="#EFC977"/>
<stop offset="1" stop-color="#E07256"/>
</linearGradient>
<linearGradient id="paint1_linear_27_914" x1="24" y1="12.311" x2="24" y2="44.936" gradientUnits="userSpaceOnUse">
<stop stop-color="#B2D4F7"/>
<stop offset="1" stop-color="#D9E2F3"/>
</linearGradient>
</defs>
</svg>
