<svg width="85" height="77" viewBox="0 0 85 77" fill="none" xmlns="http://www.w3.org/2000/svg">
<g clip-path="url(#clip0_18_620)">
<path d="M82.8876 53.6849L82.107 53.4195C76.0635 51.3633 69.2135 49.0327 62.2638 49.0327C58.4174 49.0327 54.9041 50.254 51.5066 51.4352C48.3863 52.52 45.4392 53.5444 42.4948 53.5444C39.5504 53.5444 36.6031 52.5198 33.483 51.4352C30.0854 50.254 26.572 49.0327 22.7258 49.0327C15.5661 49.0327 8.83179 51.3596 2.31933 53.6099L2.08882 53.6894C0.817012 54.1287 0.174543 55.43 0.653934 56.5959C1.13316 57.7617 2.55279 58.3506 3.82461 57.9112L4.05528 57.8315C10.4362 55.6267 16.4628 53.5443 22.7258 53.5443C25.6702 53.5443 28.6174 54.5689 31.7377 55.6535C35.1353 56.8347 38.6485 58.056 42.4948 58.056C46.3411 58.056 49.8543 56.8347 53.2519 55.6535C56.3722 54.5687 59.3194 53.5443 62.2638 53.5443C68.3295 53.5443 74.4629 55.631 80.3944 57.649L81.1781 57.9155C81.46 58.0112 81.7487 58.0566 82.0325 58.0566C83.0327 58.0566 83.9729 57.4937 84.3406 56.5837C84.8126 55.4154 84.1621 54.1176 82.8876 53.6849Z" fill="#C7DCF5"/>
<path d="M35.2286 47.2166C38.0316 48.191 40.4526 49.0327 42.4951 49.0327C44.5377 49.0327 46.9586 48.1911 49.7616 47.2166C53.3963 45.953 57.5159 44.5208 62.2643 44.5208C64.1205 44.5208 65.9459 44.6615 67.737 44.9031C67.1795 32.5815 56.0716 22.7144 42.4951 22.7144C28.9236 22.7144 17.8187 32.5746 17.254 44.8901C19.0353 44.6554 20.8563 44.5208 22.7261 44.5208C27.4744 44.5208 31.594 45.953 35.2286 47.2166Z" fill="url(#paint0_linear_18_620)"/>
<path d="M2.95605 48.1302H8.04199C9.40109 48.1302 10.5029 47.1202 10.5029 45.8744C10.5029 44.6285 9.40109 43.6185 8.04199 43.6185H2.95605C1.59696 43.6185 0.495117 44.6285 0.495117 45.8744C0.495117 47.1202 1.59696 48.1302 2.95605 48.1302Z" fill="url(#paint1_linear_18_620)"/>
<path d="M7.02282 29.7059L11.4274 32.0369C11.8149 32.2421 12.238 32.3395 12.6556 32.3395C13.5061 32.3395 14.3333 31.935 14.789 31.2113C15.4686 30.1324 15.0653 28.7527 13.8883 28.1298L9.48375 25.7987C8.30644 25.1755 6.80166 25.5455 6.12211 26.6244C5.44257 27.7033 5.84583 29.0829 7.02282 29.7059Z" fill="url(#paint2_linear_18_620)"/>
<path d="M23.1374 19.6515C23.5932 20.3752 24.4204 20.7797 25.2709 20.7797C25.6882 20.7797 26.1115 20.6823 26.499 20.4771C27.676 19.8542 28.0793 18.4747 27.3997 17.3956L24.8568 13.3581C24.1772 12.2794 22.6724 11.9094 21.4951 12.5325C20.3182 13.1554 19.9149 14.5349 20.5944 15.614L23.1374 19.6515Z" fill="url(#paint3_linear_18_620)"/>
<path d="M42.4951 16.5483C43.8542 16.5483 44.9561 15.5383 44.9561 14.2925V9.63037C44.9561 8.38454 43.8542 7.37451 42.4951 7.37451C41.136 7.37451 40.0342 8.38454 40.0342 9.63037V14.2925C40.0342 15.5383 41.136 16.5483 42.4951 16.5483Z" fill="url(#paint4_linear_18_620)"/>
<path d="M58.4912 20.4773C58.8787 20.6824 59.3019 20.7799 59.7194 20.7799C60.5699 20.7799 61.3971 20.3753 61.8529 19.6516L64.3958 15.6141C65.0754 14.5352 64.6721 13.1555 63.4951 12.5326C62.3178 11.9095 60.8129 12.2794 60.1335 13.3583L57.5905 17.3958C56.911 18.4747 57.3142 19.8542 58.4912 20.4773Z" fill="url(#paint5_linear_18_620)"/>
<path d="M72.3346 32.3397C72.752 32.3397 73.1753 32.2422 73.5628 32.0371L77.9674 29.706C79.1443 29.0831 79.5476 27.7034 78.868 26.6245C78.1885 25.5456 76.6836 25.1758 75.5064 25.7989L71.1018 28.1299C69.9248 28.7528 69.5216 30.1325 70.2011 31.2114C70.6569 31.9351 71.4841 32.3397 72.3346 32.3397Z" fill="url(#paint6_linear_18_620)"/>
<path d="M74.4873 45.8745C74.4873 47.1203 75.5891 48.1304 76.9482 48.1304H82.0342C83.3933 48.1304 84.4951 47.1203 84.4951 45.8745C84.4951 44.6287 83.3933 43.6187 82.0342 43.6187H76.9482C75.5891 43.6187 74.4873 44.6285 74.4873 45.8745Z" fill="url(#paint7_linear_18_620)"/>
<path d="M69.2927 65.2611L69.2342 65.2407C65.6591 63.9923 60.2567 62.1055 55.4557 62.1055C52.8153 62.1055 50.4165 62.9456 48.0968 63.758C46.1068 64.455 44.2269 65.1133 42.4948 65.1133C40.7626 65.1133 38.8828 64.455 36.8927 63.758C34.573 62.9456 32.1744 62.1055 29.5338 62.1055C25.4122 62.1055 22.7557 62.9702 18.3543 64.4028C17.566 64.6594 16.7104 64.9379 15.7668 65.2378C14.4827 65.6458 13.8025 66.9309 14.2478 68.108C14.6004 69.0406 15.5534 69.6256 16.5729 69.6256C16.8401 69.6256 17.1123 69.5853 17.3791 69.5005C18.3354 69.1965 19.2025 68.9144 20.0013 68.6544C24.2989 67.2556 26.2603 66.6172 29.534 66.6172C31.2663 66.6172 33.146 67.2754 35.1361 67.9725C37.4557 68.7849 39.8543 69.625 42.4949 69.625C45.1355 69.625 47.5341 68.7849 49.8538 67.9725C51.8439 67.2754 53.7237 66.6172 55.4559 66.6172C59.351 66.6172 64.2442 68.3259 67.4821 69.4567L67.5407 69.4772C68.8107 69.9208 70.2326 69.3364 70.7165 68.1722C71.2003 67.0081 70.5629 65.7046 69.2927 65.2611Z" fill="#C7DCF5"/>
</g>
<defs>
<linearGradient id="paint0_linear_18_620" x1="41.6201" y1="6.41677" x2="75.6676" y2="51.0473" gradientUnits="userSpaceOnUse">
<stop stop-color="#EFC977"/>
<stop offset="1" stop-color="#E07256"/>
</linearGradient>
<linearGradient id="paint1_linear_18_620" x1="41.6201" y1="6.41677" x2="75.6676" y2="51.0473" gradientUnits="userSpaceOnUse">
<stop stop-color="#EFC977"/>
<stop offset="1" stop-color="#E07256"/>
</linearGradient>
<linearGradient id="paint2_linear_18_620" x1="41.6201" y1="6.41677" x2="75.6676" y2="51.0473" gradientUnits="userSpaceOnUse">
<stop stop-color="#EFC977"/>
<stop offset="1" stop-color="#E07256"/>
</linearGradient>
<linearGradient id="paint3_linear_18_620" x1="41.6201" y1="6.41677" x2="75.6676" y2="51.0473" gradientUnits="userSpaceOnUse">
<stop stop-color="#EFC977"/>
<stop offset="1" stop-color="#E07256"/>
</linearGradient>
<linearGradient id="paint4_linear_18_620" x1="41.6201" y1="6.41677" x2="75.6676" y2="51.0473" gradientUnits="userSpaceOnUse">
<stop stop-color="#EFC977"/>
<stop offset="1" stop-color="#E07256"/>
</linearGradient>
<linearGradient id="paint5_linear_18_620" x1="41.6201" y1="6.41677" x2="75.6676" y2="51.0473" gradientUnits="userSpaceOnUse">
<stop stop-color="#EFC977"/>
<stop offset="1" stop-color="#E07256"/>
</linearGradient>
<linearGradient id="paint6_linear_18_620" x1="41.6201" y1="6.41677" x2="75.6676" y2="51.0473" gradientUnits="userSpaceOnUse">
<stop stop-color="#EFC977"/>
<stop offset="1" stop-color="#E07256"/>
</linearGradient>
<linearGradient id="paint7_linear_18_620" x1="41.6201" y1="6.41677" x2="75.6676" y2="51.0473" gradientUnits="userSpaceOnUse">
<stop stop-color="#EFC977"/>
<stop offset="1" stop-color="#E07256"/>
</linearGradient>
<clipPath id="clip0_18_620">
<rect width="84" height="77" fill="white" transform="translate(0.495117)"/>
</clipPath>
</defs>
</svg>
