<svg width="25" height="24" viewBox="0 0 25 24" fill="none" xmlns="http://www.w3.org/2000/svg">
<g clip-path="url(#clip0_27_888)">
<path d="M24.0407 16.7327L23.8177 16.65C22.091 16.0091 20.1338 15.2827 18.1482 15.2827C17.0492 15.2827 16.0454 15.6634 15.0747 16.0315C14.1832 16.3697 13.3412 16.689 12.4999 16.689C11.6586 16.689 10.8166 16.3696 9.92511 16.0315C8.95438 15.6634 7.95055 15.2827 6.85161 15.2827C4.80599 15.2827 2.88191 16.008 1.0212 16.7094L0.955345 16.7342C0.59197 16.8711 0.408407 17.2767 0.545376 17.6401C0.682298 18.0034 1.08791 18.187 1.45128 18.05L1.51719 18.0252C3.3403 17.338 5.0622 16.6889 6.85161 16.6889C7.69288 16.6889 8.53494 17.0083 9.42645 17.3463C10.3972 17.7145 11.401 18.0952 12.4999 18.0952C13.5988 18.0952 14.6026 17.7145 15.5734 17.3463C16.4649 17.0082 17.3069 16.6889 18.1482 16.6889C19.8813 16.6889 21.6336 17.3393 23.3284 17.9683L23.5523 18.0514C23.6328 18.0812 23.7153 18.0954 23.7964 18.0954C24.0822 18.0954 24.3508 17.9199 24.4558 17.6363C24.5907 17.2721 24.4048 16.8676 24.0407 16.7327Z" fill="#C7DCF5"/>
<path d="M10.4239 14.7167C11.2247 15.0204 11.9164 15.2827 12.5 15.2827C13.0836 15.2827 13.7753 15.0204 14.5761 14.7167C15.6146 14.3228 16.7916 13.8764 18.1483 13.8764C18.6787 13.8764 19.2002 13.9202 19.712 13.9956C19.5527 10.1551 16.379 7.07959 12.5 7.07959C8.62241 7.07959 5.44958 10.1529 5.28824 13.9915C5.79721 13.9184 6.31747 13.8764 6.85171 13.8764C8.20836 13.8764 9.3854 14.3228 10.4239 14.7167Z" fill="url(#paint0_linear_27_888)"/>
<path d="M1.20312 15.0014H2.65625C3.04456 15.0014 3.35938 14.6866 3.35938 14.2983C3.35938 13.91 3.04456 13.5952 2.65625 13.5952H1.20312C0.814812 13.5952 0.5 13.91 0.5 14.2983C0.5 14.6866 0.814812 15.0014 1.20312 15.0014Z" fill="url(#paint1_linear_27_888)"/>
<path d="M2.36506 9.25876L3.62351 9.98532C3.73423 10.0493 3.85512 10.0796 3.97442 10.0796C4.21742 10.0796 4.45376 9.95354 4.58398 9.72798C4.77814 9.3917 4.66292 8.96167 4.32664 8.76751L3.06818 8.04095C2.73181 7.8467 2.30187 7.96201 2.10771 8.29829C1.91356 8.63457 2.02878 9.06461 2.36506 9.25876Z" fill="url(#paint2_linear_27_888)"/>
<path d="M6.96922 6.12493C7.09944 6.3505 7.33579 6.47659 7.57879 6.47659C7.69804 6.47659 7.81897 6.44621 7.92969 6.38228C8.26597 6.18812 8.38119 5.75814 8.18704 5.42181L7.46047 4.16336C7.26632 3.82712 6.83638 3.71181 6.50001 3.90601C6.16372 4.10017 6.04851 4.53015 6.24266 4.86648L6.96922 6.12493Z" fill="url(#paint3_linear_27_888)"/>
<path d="M12.5 5.15772C12.8883 5.15772 13.2031 4.8429 13.2031 4.45459V3.00147C13.2031 2.61315 12.8883 2.29834 12.5 2.29834C12.1117 2.29834 11.7969 2.61315 11.7969 3.00147V4.45459C11.7969 4.8429 12.1117 5.15772 12.5 5.15772Z" fill="url(#paint4_linear_27_888)"/>
<path d="M17.0703 6.38232C17.181 6.44626 17.3019 6.47664 17.4212 6.47664C17.6642 6.47664 17.9006 6.35054 18.0308 6.12498L18.7573 4.86653C18.9515 4.53025 18.8363 4.10021 18.5 3.90606C18.1636 3.71186 17.7336 3.82712 17.5395 4.1634L16.813 5.42186C16.6188 5.75814 16.734 6.18812 17.0703 6.38232Z" fill="url(#paint5_linear_27_888)"/>
<path d="M21.0256 10.0797C21.1448 10.0797 21.2658 10.0493 21.3765 9.98537L22.6349 9.25881C22.9712 9.06465 23.0864 8.63462 22.8923 8.29834C22.6981 7.96206 22.2681 7.84679 21.9318 8.041L20.6733 8.76756C20.3371 8.96172 20.2218 9.39175 20.416 9.72803C20.5462 9.95359 20.7826 10.0797 21.0256 10.0797Z" fill="url(#paint6_linear_27_888)"/>
<path d="M21.6406 14.2983C21.6406 14.6867 21.9554 15.0015 22.3438 15.0015H23.7969C24.1852 15.0015 24.5 14.6867 24.5 14.2983C24.5 13.91 24.1852 13.5952 23.7969 13.5952H22.3438C21.9554 13.5952 21.6406 13.91 21.6406 14.2983Z" fill="url(#paint7_linear_27_888)"/>
<path d="M20.1567 20.341L20.14 20.3346C19.1186 19.9455 17.575 19.3574 16.2033 19.3574C15.4489 19.3574 14.7635 19.6193 14.1008 19.8725C13.5322 20.0898 12.9951 20.2949 12.5002 20.2949C12.0053 20.2949 11.4682 20.0898 10.8996 19.8725C10.2368 19.6193 9.5515 19.3574 8.79705 19.3574C7.61946 19.3574 6.86046 19.627 5.6029 20.0735C5.37766 20.1535 5.13321 20.2403 4.86363 20.3337C4.49674 20.4609 4.3024 20.8615 4.42961 21.2283C4.53035 21.519 4.80265 21.7014 5.09393 21.7014C5.17029 21.7014 5.24805 21.6888 5.32427 21.6624C5.5975 21.5676 5.84524 21.4797 6.07347 21.3986C7.30136 20.9627 7.86176 20.7637 8.7971 20.7637C9.29205 20.7637 9.8291 20.9688 10.3977 21.1861C11.0605 21.4393 11.7458 21.7012 12.5002 21.7012C13.2547 21.7012 13.94 21.4393 14.6028 21.1861C15.1713 20.9688 15.7084 20.7637 16.2033 20.7637C17.3163 20.7637 18.7143 21.2963 19.6394 21.6487L19.6562 21.6551C20.019 21.7934 20.4253 21.6112 20.5635 21.2484C20.7018 20.8855 20.5196 20.4792 20.1567 20.341Z" fill="#C7DCF5"/>
</g>
<defs>
<linearGradient id="paint0_linear_27_888" x1="12.25" y1="1.99982" x2="23.0703" y2="15.0015" gradientUnits="userSpaceOnUse">
<stop stop-color="#EFC977"/>
<stop offset="1" stop-color="#E07256"/>
</linearGradient>
<linearGradient id="paint1_linear_27_888" x1="12.25" y1="1.99982" x2="23.0703" y2="15.0015" gradientUnits="userSpaceOnUse">
<stop stop-color="#EFC977"/>
<stop offset="1" stop-color="#E07256"/>
</linearGradient>
<linearGradient id="paint2_linear_27_888" x1="12.25" y1="1.99982" x2="23.0703" y2="15.0015" gradientUnits="userSpaceOnUse">
<stop stop-color="#EFC977"/>
<stop offset="1" stop-color="#E07256"/>
</linearGradient>
<linearGradient id="paint3_linear_27_888" x1="12.25" y1="1.99982" x2="23.0703" y2="15.0015" gradientUnits="userSpaceOnUse">
<stop stop-color="#EFC977"/>
<stop offset="1" stop-color="#E07256"/>
</linearGradient>
<linearGradient id="paint4_linear_27_888" x1="12.25" y1="1.99982" x2="23.0703" y2="15.0015" gradientUnits="userSpaceOnUse">
<stop stop-color="#EFC977"/>
<stop offset="1" stop-color="#E07256"/>
</linearGradient>
<linearGradient id="paint5_linear_27_888" x1="12.25" y1="1.99982" x2="23.0703" y2="15.0015" gradientUnits="userSpaceOnUse">
<stop stop-color="#EFC977"/>
<stop offset="1" stop-color="#E07256"/>
</linearGradient>
<linearGradient id="paint6_linear_27_888" x1="12.25" y1="1.99982" x2="23.0703" y2="15.0015" gradientUnits="userSpaceOnUse">
<stop stop-color="#EFC977"/>
<stop offset="1" stop-color="#E07256"/>
</linearGradient>
<linearGradient id="paint7_linear_27_888" x1="12.25" y1="1.99982" x2="23.0703" y2="15.0015" gradientUnits="userSpaceOnUse">
<stop stop-color="#EFC977"/>
<stop offset="1" stop-color="#E07256"/>
</linearGradient>
<clipPath id="clip0_27_888">
<rect width="24" height="24" fill="white" transform="translate(0.5)"/>
</clipPath>
</defs>
</svg>
