<svg width="19" height="18" viewBox="0 0 19 18" fill="none" xmlns="http://www.w3.org/2000/svg">
<path fill-rule="evenodd" clip-rule="evenodd" d="M2.74512 7.5C2.74512 3.77208 5.76719 0.75 9.49512 0.75C13.223 0.75 16.2451 3.77208 16.2451 7.5C16.2451 9.39463 15.385 11.0552 14.2143 12.5753C13.2361 13.8455 11.9839 15.0868 10.7331 16.3268L10.7322 16.3276C10.496 16.5619 10.2598 16.796 10.0254 17.0303C9.73255 17.3232 9.25768 17.3232 8.96479 17.0303C8.73031 16.7959 8.49341 16.561 8.25699 16.3266C7.00622 15.0867 5.75415 13.8455 4.77591 12.5753C3.60524 11.0552 2.74512 9.39463 2.74512 7.5ZM11.7451 7.5C11.7451 8.74264 10.7378 9.75 9.49512 9.75C8.25248 9.75 7.24512 8.74264 7.24512 7.5C7.24512 6.25736 8.25248 5.25 9.49512 5.25C10.7378 5.25 11.7451 6.25736 11.7451 7.5Z" fill="url(#paint0_linear_18_547)"/>
<defs>
<linearGradient id="paint0_linear_18_547" x1="9.49512" y1="0.75" x2="9.49512" y2="17.25" gradientUnits="userSpaceOnUse">
<stop stop-color="#EDBB72"/>
<stop offset="1" stop-color="#E07256"/>
</linearGradient>
</defs>
</svg>
