<svg width="325" height="331" viewBox="0 0 325 331" fill="none" xmlns="http://www.w3.org/2000/svg">
<path d="M160.706 169.004C159.78 169.81 157.545 172.004 157.545 174.516C157.545 177.029 159.795 179.223 160.706 180.029C161.629 179.223 163.864 177.029 163.864 174.516C163.864 172.004 161.629 169.81 160.706 169.004ZM160.706 177.081C160.199 177.081 159.703 176.931 159.281 176.649C158.859 176.367 158.531 175.967 158.336 175.498C158.142 175.029 158.091 174.514 158.19 174.016C158.289 173.518 158.534 173.061 158.892 172.703C159.251 172.344 159.708 172.1 160.206 172.001C160.703 171.902 161.219 171.952 161.688 172.147C162.156 172.341 162.557 172.67 162.839 173.091C163.121 173.513 163.271 174.009 163.271 174.516C163.27 175.196 163 175.848 162.519 176.329C162.038 176.81 161.386 177.08 160.706 177.081V177.081Z" fill="url(#paint0_linear_70_1284)"/>
<path d="M160.046 151.18L141 155.943V159.678L160.046 154.915V151.18Z" fill="url(#paint1_linear_70_1284)"/>
<path d="M160.706 173.264C160.459 173.265 160.218 173.34 160.013 173.478C159.809 173.616 159.649 173.812 159.555 174.04C159.461 174.269 159.437 174.52 159.486 174.762C159.534 175.005 159.654 175.227 159.828 175.402C160.003 175.577 160.225 175.696 160.468 175.744C160.71 175.793 160.961 175.769 161.19 175.675C161.418 175.581 161.614 175.422 161.752 175.217C161.89 175.012 161.965 174.771 161.966 174.524C161.967 174.358 161.936 174.194 161.873 174.04C161.81 173.887 161.717 173.748 161.6 173.631C161.482 173.513 161.343 173.421 161.19 173.358C161.036 173.295 160.872 173.263 160.706 173.264V173.264Z" fill="url(#paint2_linear_70_1284)"/>
<path d="M156.229 174.524C156.229 171.246 159.142 168.591 160.046 167.845V159.43L157.046 160.18C156.965 160.203 156.879 160.209 156.795 160.198C156.711 160.187 156.63 160.159 156.557 160.117C156.483 160.074 156.42 160.017 156.369 159.949C156.318 159.881 156.281 159.804 156.261 159.721C156.241 159.639 156.237 159.554 156.25 159.47C156.264 159.386 156.294 159.306 156.339 159.234C156.384 159.162 156.442 159.1 156.512 159.051C156.581 159.002 156.66 158.968 156.742 158.95L160.054 158.136V156.261L141 161.024V162.865L142.736 162.434C142.895 162.407 143.058 162.44 143.193 162.528C143.327 162.616 143.424 162.752 143.463 162.908C143.502 163.064 143.48 163.229 143.402 163.37C143.325 163.511 143.197 163.617 143.044 163.667L141 164.177V182.268L160.046 187.03V181.195C159.142 180.449 156.229 177.794 156.229 174.524ZM151.95 161.455L148.132 162.407C148.049 162.435 147.961 162.445 147.874 162.437C147.787 162.429 147.702 162.403 147.625 162.36C147.548 162.318 147.481 162.26 147.428 162.191C147.374 162.121 147.336 162.041 147.314 161.956C147.293 161.871 147.29 161.783 147.304 161.696C147.319 161.61 147.351 161.527 147.399 161.454C147.447 161.38 147.51 161.317 147.583 161.269C147.656 161.221 147.739 161.189 147.825 161.174L151.642 160.221C151.726 160.194 151.814 160.184 151.901 160.192C151.988 160.2 152.073 160.226 152.15 160.268C152.227 160.311 152.294 160.369 152.347 160.438C152.401 160.508 152.439 160.587 152.461 160.673C152.482 160.758 152.485 160.846 152.471 160.933C152.456 161.019 152.424 161.102 152.376 161.175C152.328 161.249 152.265 161.311 152.192 161.359C152.119 161.408 152.036 161.44 151.95 161.455Z" fill="url(#paint3_linear_70_1284)"/>
<path d="M175.537 169.979L168.379 168.07C168.308 168.051 168.235 168.048 168.163 168.062C168.092 168.075 168.024 168.105 167.966 168.149C167.89 168.211 167.829 168.289 167.787 168.378C167.745 168.467 167.725 168.564 167.726 168.662V185.44L175.957 183.381V170.579C175.962 170.447 175.923 170.317 175.847 170.209C175.772 170.101 175.663 170.02 175.537 169.979Z" fill="url(#paint4_linear_70_1284)"/>
<path d="M160.046 148L141 152.759V154.589L160.046 149.826V148Z" fill="url(#paint5_linear_70_1284)"/>
<path d="M161.363 149.826L180.409 154.589V152.759L161.363 148V149.826Z" fill="url(#paint6_linear_70_1284)"/>
<path d="M161.363 154.915L180.409 159.678V155.943L161.363 151.18V154.915Z" fill="url(#paint7_linear_70_1284)"/>
<path d="M161.363 158.136L164.674 158.95C164.757 158.968 164.835 159.002 164.905 159.051C164.974 159.1 165.033 159.162 165.078 159.234C165.123 159.306 165.153 159.386 165.166 159.47C165.179 159.554 165.176 159.639 165.155 159.721C165.135 159.804 165.098 159.881 165.048 159.949C164.997 160.017 164.933 160.074 164.86 160.117C164.786 160.159 164.705 160.187 164.621 160.198C164.537 160.209 164.452 160.203 164.37 160.18L161.37 159.43V167.837C162.274 168.587 165.188 171.239 165.188 174.516C165.188 177.794 162.274 180.449 161.37 181.195V187.038L166.41 185.774V168.67C166.407 168.371 166.473 168.075 166.603 167.806C166.733 167.536 166.924 167.301 167.16 167.117C167.377 166.948 167.631 166.831 167.901 166.777C168.171 166.722 168.45 166.731 168.716 166.802L175.871 168.711C176.278 168.826 176.635 169.073 176.886 169.412C177.138 169.751 177.27 170.164 177.263 170.586V183.066L180.405 182.283V164.185L178.361 163.675C178.209 163.625 178.08 163.518 178.003 163.377C177.925 163.237 177.903 163.071 177.942 162.915C177.981 162.759 178.078 162.624 178.213 162.536C178.347 162.448 178.51 162.414 178.669 162.441L180.405 162.872V161.024L161.359 156.261L161.363 158.136ZM169.766 160.214L173.591 161.166C173.678 161.181 173.76 161.214 173.834 161.262C173.907 161.31 173.969 161.373 174.017 161.446C174.065 161.52 174.098 161.602 174.112 161.689C174.127 161.775 174.123 161.864 174.102 161.949C174.081 162.034 174.042 162.114 173.989 162.183C173.935 162.253 173.868 162.31 173.791 162.353C173.715 162.395 173.63 162.421 173.543 162.429C173.455 162.437 173.367 162.427 173.284 162.4L169.466 161.447C169.38 161.433 169.298 161.4 169.224 161.352C169.151 161.304 169.088 161.241 169.04 161.168C168.992 161.094 168.96 161.012 168.946 160.925C168.931 160.839 168.934 160.75 168.956 160.665C168.977 160.58 169.015 160.5 169.069 160.431C169.122 160.361 169.19 160.303 169.266 160.261C169.343 160.219 169.428 160.193 169.515 160.184C169.603 160.176 169.691 160.186 169.774 160.214H169.766Z" fill="url(#paint8_linear_70_1284)"/>
<path d="M166.117 33.0675L161.49 6L156.904 33.1088C86.1525 35.76 29.3287 92.8313 27.0825 163.684L0 168.292L27.1012 172.913C29.6062 243.555 86.3512 300.375 156.982 302.978L161.599 330.082L166.207 303.011C237.229 300.859 294.457 243.866 296.977 172.939L324.082 168.33L297 163.714C294.754 92.49 237.371 35.1825 166.117 33.0675ZM246.067 84.0112C266.679 104.507 278.996 131.892 280.654 160.913L200.321 147.233L242.456 87.7875L182.7 130.069L168.911 49.41C198.022 51.0117 225.509 63.3382 246.067 84.0112ZM185.006 143.903L183.041 132.079L231.319 97.5788L185.006 143.903ZM160.117 36.5V81.2719V135.435C153.45 135.81 146.055 138.664 140.779 143.137L160.117 36.5ZM78.015 84.0112C98.322 63.5904 125.399 51.3057 154.14 49.4737L140.572 129.596L81.585 87.9112L123.705 147.244L43.4288 160.913C45.09 131.893 57.4061 104.509 78.015 84.0112ZM137.441 144.952L125.704 146.91L91.4662 98.9775L137.441 144.952ZM21.1162 169.305H129.435C129.767 176.389 132.411 183.17 136.961 188.61L21.1162 169.305ZM78.015 252.064C57.5344 231.696 45.2388 204.521 43.4587 175.691L123.679 189.341L81.9825 248.216L140.602 206.704L154.2 286.605C125.438 284.784 98.3383 272.497 78.015 252.064ZM138.341 193.163L140.269 204.713L93.1087 238.387L138.341 193.163ZM132.004 168.038C132.002 162.096 133.763 156.288 137.062 151.348C140.362 146.407 145.053 142.556 150.541 140.281C156.03 138.006 162.069 137.411 167.897 138.569C173.724 139.727 179.077 142.587 183.278 146.788C187.48 150.988 190.341 156.34 191.501 162.167C192.661 167.994 192.066 174.034 189.793 179.523C187.52 185.012 183.67 189.704 178.73 193.005C173.79 196.306 167.982 198.068 162.041 198.068C154.079 198.06 146.444 194.893 140.813 189.264C135.182 183.634 132.014 176 132.004 168.038ZM198.334 189.69L232.26 237.188L186.701 191.625L198.334 189.69ZM162.784 308.94V200.662C169.761 200.504 176.498 198.082 181.98 193.762L162.784 308.94ZM246.067 252.064C225.527 272.718 198.07 285.041 168.986 286.661L182.666 206.231L242.092 248.31L200.344 189.353L280.62 175.71C278.838 204.533 266.544 231.701 246.067 252.064ZM194.666 166.639C194.347 159.655 191.88 152.941 187.601 147.413L302.962 166.639H194.666Z" fill="url(#paint9_linear_70_1284)"/>
<path d="M162 0L182 124L162 62L142 124L162 0Z" fill="white"/>
<defs>
<linearGradient id="paint0_linear_70_1284" x1="160.704" y1="169.004" x2="160.704" y2="180.029" gradientUnits="userSpaceOnUse">
<stop stop-color="#EDBC73"/>
<stop offset="1" stop-color="#E07256"/>
</linearGradient>
<linearGradient id="paint1_linear_70_1284" x1="150.523" y1="151.18" x2="150.523" y2="159.678" gradientUnits="userSpaceOnUse">
<stop stop-color="#EDBC73"/>
<stop offset="1" stop-color="#E07256"/>
</linearGradient>
<linearGradient id="paint2_linear_70_1284" x1="160.714" y1="173.264" x2="160.714" y2="175.769" gradientUnits="userSpaceOnUse">
<stop stop-color="#EDBC73"/>
<stop offset="1" stop-color="#E07256"/>
</linearGradient>
<linearGradient id="paint3_linear_70_1284" x1="150.527" y1="156.261" x2="150.527" y2="187.03" gradientUnits="userSpaceOnUse">
<stop stop-color="#EDBC73"/>
<stop offset="1" stop-color="#E07256"/>
</linearGradient>
<linearGradient id="paint4_linear_70_1284" x1="171.842" y1="168.053" x2="171.842" y2="185.44" gradientUnits="userSpaceOnUse">
<stop stop-color="#EDBC73"/>
<stop offset="1" stop-color="#E07256"/>
</linearGradient>
<linearGradient id="paint5_linear_70_1284" x1="150.523" y1="148" x2="150.523" y2="154.589" gradientUnits="userSpaceOnUse">
<stop stop-color="#EDBC73"/>
<stop offset="1" stop-color="#E07256"/>
</linearGradient>
<linearGradient id="paint6_linear_70_1284" x1="170.886" y1="148" x2="170.886" y2="154.589" gradientUnits="userSpaceOnUse">
<stop stop-color="#EDBC73"/>
<stop offset="1" stop-color="#E07256"/>
</linearGradient>
<linearGradient id="paint7_linear_70_1284" x1="170.886" y1="151.18" x2="170.886" y2="159.678" gradientUnits="userSpaceOnUse">
<stop stop-color="#EDBC73"/>
<stop offset="1" stop-color="#E07256"/>
</linearGradient>
<linearGradient id="paint8_linear_70_1284" x1="170.882" y1="156.261" x2="170.882" y2="187.038" gradientUnits="userSpaceOnUse">
<stop stop-color="#EDBC73"/>
<stop offset="1" stop-color="#E07256"/>
</linearGradient>
<linearGradient id="paint9_linear_70_1284" x1="162.041" y1="6" x2="162.041" y2="330.082" gradientUnits="userSpaceOnUse">
<stop stop-color="#EDBC73"/>
<stop offset="1" stop-color="#E07256"/>
</linearGradient>
</defs>
</svg>
