<svg width="25" height="24" viewBox="0 0 25 24" fill="none" xmlns="http://www.w3.org/2000/svg">
<path fill-rule="evenodd" clip-rule="evenodd" d="M12.5 3.75C12.0858 3.75 11.75 3.41421 11.75 3V2.25C11.75 1.83579 12.0858 1.5 12.5 1.5C12.9142 1.5 13.25 1.83579 13.25 2.25V3C13.25 3.41421 12.9142 3.75 12.5 3.75ZM16.625 4.85536C16.2663 4.64825 16.1434 4.18956 16.3505 3.83084L16.7255 3.18132C16.9326 2.8226 17.3913 2.69969 17.75 2.9068C18.1088 3.11391 18.2317 3.5726 18.0246 3.93132L17.6496 4.58084C17.4425 4.93956 16.9838 5.06246 16.625 4.85536ZM12.5 17.25C15.3995 17.25 17.75 14.8995 17.75 12C17.75 9.1005 15.3995 6.75 12.5 6.75C9.6005 6.75 7.25 9.1005 7.25 12C7.25 14.8995 9.6005 17.25 12.5 17.25ZM12.5 18.75C16.2279 18.75 19.25 15.7279 19.25 12C19.25 8.27208 16.2279 5.25 12.5 5.25C8.77208 5.25 5.75 8.27208 5.75 12C5.75 15.7279 8.77208 18.75 12.5 18.75ZM20.75 12C20.75 11.5858 21.0858 11.25 21.5 11.25H22.25C22.6642 11.25 23 11.5858 23 12C23 12.4142 22.6642 12.75 22.25 12.75H21.5C21.0858 12.75 20.75 12.4142 20.75 12ZM21.5932 6.75C21.3861 6.39128 20.9274 6.26837 20.5687 6.47548L19.9192 6.85048C19.5605 7.05759 19.4376 7.51628 19.6447 7.875C19.8518 8.23372 20.3105 8.35663 20.6692 8.14952L21.3187 7.77452C21.6774 7.56741 21.8004 7.10872 21.5932 6.75ZM7.25 2.9068C6.89128 3.11391 6.76837 3.5726 6.97548 3.93132L7.35048 4.58084C7.55759 4.93956 8.01628 5.06246 8.375 4.85536C8.73372 4.64825 8.85663 4.18956 8.64952 3.83084L8.27452 3.18132C8.06741 2.8226 7.60872 2.69969 7.25 2.9068ZM5.35531 7.875C5.1482 8.23372 4.68951 8.35663 4.33079 8.14952L3.68127 7.77452C3.32255 7.56741 3.19965 7.10872 3.40675 6.75C3.61386 6.39128 4.07255 6.26837 4.43127 6.47548L5.08079 6.85048C5.43951 7.05759 5.56242 7.51628 5.35531 7.875ZM12.5 20.25C12.0858 20.25 11.75 20.5858 11.75 21V21.75C11.75 22.1642 12.0858 22.5 12.5 22.5C12.9142 22.5 13.25 22.1642 13.25 21.75V21C13.25 20.5858 12.9142 20.25 12.5 20.25ZM4.25 12C4.25 11.5858 3.91421 11.25 3.5 11.25H2.75C2.33579 11.25 2 11.5858 2 12C2 12.4142 2.33579 12.75 2.75 12.75H3.5C3.91421 12.75 4.25 12.4142 4.25 12ZM3.40671 17.25C3.19961 16.8913 3.32251 16.4326 3.68123 16.2255L4.33075 15.8505C4.68947 15.6434 5.14816 15.7663 5.35527 16.125C5.56238 16.4837 5.43947 16.9424 5.08075 17.1495L4.43123 17.5245C4.07251 17.7316 3.61382 17.6087 3.40671 17.25ZM8.37505 19.1448C8.01633 18.9377 7.55763 19.0606 7.35053 19.4193L6.97553 20.0688C6.76842 20.4275 6.89133 20.8862 7.25005 21.0933C7.60877 21.3004 8.06746 21.1775 8.27456 20.8188L8.64956 20.1693C8.85667 19.8106 8.73377 19.3519 8.37505 19.1448ZM17.75 21.0933C17.3913 21.3004 16.9326 21.1775 16.7255 20.8188L16.3505 20.1693C16.1434 19.8106 16.2663 19.3519 16.625 19.1448C16.9837 18.9377 17.4424 19.0606 17.6495 19.4193L18.0245 20.0688C18.2316 20.4275 18.1087 20.8862 17.75 21.0933ZM19.6447 16.125C19.4376 16.4837 19.5605 16.9424 19.9192 17.1495L20.5688 17.5245C20.9275 17.7316 21.3862 17.6087 21.5933 17.25C21.8004 16.8913 21.6775 16.4326 21.3188 16.2255L20.6692 15.8505C20.3105 15.6434 19.8518 15.7663 19.6447 16.125Z" fill="url(#paint0_linear_27_851)"/>
<defs>
<linearGradient id="paint0_linear_27_851" x1="12.5" y1="1.5" x2="12.5" y2="22.5" gradientUnits="userSpaceOnUse">
<stop stop-color="#EFC977"/>
<stop offset="1" stop-color="#E07256"/>
</linearGradient>
</defs>
</svg>
