<svg width="335" height="107" viewBox="0 0 335 107" fill="none" xmlns="http://www.w3.org/2000/svg">
<g filter="url(#filter0_d_27_1000)">
<path d="M298.319 33.5191C298.783 33.3415 299.18 33.0037 299.448 32.5582C299.715 32.1126 299.838 31.5843 299.798 31.0555C299.758 30.5266 299.557 30.0269 299.226 29.6339C298.895 29.241 298.453 28.977 297.968 28.8829L297.91 27.9905C298.136 27.9123 298.33 27.7549 298.463 27.5436C298.595 27.3323 298.658 27.0792 298.642 26.8248C298.625 26.5703 298.53 26.3291 298.371 26.1398C298.213 25.9505 298 25.8239 297.767 25.7802L297.672 24.3131C298.803 24.2833 299.878 23.7745 300.664 22.8969C301.449 22.0193 301.882 20.8436 301.869 19.6245C301.855 18.4053 301.396 17.2411 300.591 16.3839C299.787 15.5267 298.701 15.0456 297.569 15.045C297.387 15.0461 297.206 15.06 297.025 15.0864C297.628 15.1803 298.195 15.4531 298.662 15.8742C299.129 16.2954 299.479 16.8483 299.671 17.471C299.863 18.0938 299.89 18.7619 299.75 19.4005C299.61 20.0391 299.308 20.6232 298.877 21.0872C298.446 21.5512 297.904 21.877 297.311 22.0281C296.718 22.1791 296.098 22.1495 295.52 21.9425C294.942 21.7355 294.429 21.3593 294.038 20.856C293.647 20.3527 293.394 19.7421 293.306 19.0926C293.282 19.2872 293.269 19.4833 293.268 19.6797C293.267 20.89 293.706 22.0525 294.491 22.9184C295.276 23.7843 296.345 24.2849 297.468 24.3131L297.372 25.7857C297.138 25.8296 296.925 25.9563 296.767 26.1458C296.608 26.3352 296.513 26.5764 296.497 26.8308C296.481 27.0853 296.544 27.3383 296.677 27.5495C296.809 27.7607 297.004 27.9179 297.229 27.996L297.17 28.8885C296.685 28.9822 296.242 29.2463 295.911 29.6394C295.58 30.0326 295.378 30.5328 295.338 31.0621C295.298 31.5913 295.422 32.12 295.69 32.5657C295.958 33.0113 296.355 33.349 296.82 33.526C291.682 41.9045 261.667 46.4011 261.667 62.0543V69.7241H259.296V60.6963C259.389 60.5788 259.504 60.4843 259.634 60.4194C259.764 60.3545 259.905 60.3208 260.049 60.3206H260.288V59.873H259.296V53.6565H259.944V53.2172H259.727V52.9409H259.506C259.541 52.6459 259.558 52.3486 259.555 52.0512C259.555 50.58 257.421 49.6268 256.835 48.6349C256.89 48.6057 256.936 48.5607 256.968 48.5047C257 48.4488 257.017 48.3843 257.017 48.3185C257.017 48.25 256.999 48.1829 256.964 48.1253C256.93 48.0677 256.88 48.0221 256.822 47.9939C256.837 47.9686 256.844 47.9394 256.844 47.9096C256.844 47.8735 256.833 47.8384 256.813 47.8095C256.793 47.7806 256.765 47.7595 256.732 47.7494L256.688 47.0587L256.643 47.7494C256.61 47.7595 256.582 47.7805 256.562 47.8094C256.541 47.8383 256.53 47.8734 256.53 47.9096C256.53 47.9393 256.538 47.9683 256.552 47.9939C256.494 48.0224 256.445 48.068 256.41 48.1256C256.376 48.1831 256.357 48.25 256.357 48.3185C256.357 48.3838 256.374 48.4477 256.405 48.5033C256.437 48.5589 256.482 48.604 256.536 48.6335C255.95 49.6157 253.818 50.5814 253.818 52.0526C253.815 52.35 253.831 52.6473 253.866 52.9422H253.646V53.2185H253.429V53.6578H254.078V59.8744H253.084V60.322H253.324C253.467 60.3224 253.609 60.3562 253.739 60.421C253.869 60.4859 253.985 60.5803 254.078 60.6977V64.8421C251.463 61.6081 246.64 59.8965 245.543 57.3449C245.754 57.2888 245.941 57.1562 246.073 56.9692C246.204 56.7822 246.272 56.5523 246.265 56.3178C246.258 56.0833 246.177 55.8585 246.034 55.6811C245.892 55.5037 245.697 55.3844 245.482 55.3432L245.458 54.9633C245.552 54.9287 245.633 54.8614 245.689 54.7719C245.744 54.6825 245.77 54.5759 245.763 54.4688C245.756 54.3617 245.716 54.2601 245.65 54.1799C245.583 54.0997 245.494 54.0453 245.396 54.0253L245.312 52.7364L245.229 54.0253C245.13 54.0443 245.04 54.0981 244.973 54.1784C244.906 54.2587 244.866 54.3608 244.859 54.4685C244.851 54.5762 244.878 54.6833 244.934 54.773C244.99 54.8626 245.072 54.9296 245.167 54.9633L245.143 55.3432C244.935 55.3908 244.748 55.5119 244.612 55.6874C244.475 55.8628 244.397 56.0824 244.39 56.3111C244.384 56.5397 244.448 56.7643 244.573 56.9489C244.699 57.1336 244.878 57.2677 245.082 57.3297C243.544 60.8773 234.845 62.7975 234.845 69.4409V72.7053H233.392V74.0867H231.791L231.587 64.4856H231.612V62.9315C231.677 62.5048 231.88 62.1166 232.185 61.8358C232.49 61.5551 232.878 61.4 233.28 61.3981H233.687V60.6452H231.507L231.166 44.5209H231.186V43.1312C231.301 42.3576 231.621 41.7608 232.37 41.7608H232.708V41.0811H231.093L230.865 30.3335H231.197V29.977H231.489V29.2863H230.808V25.0466H231.77V24.4803H231.489V24.1142H231.203C231.249 23.7331 231.271 23.3491 231.268 22.9648C231.268 21.0639 228.509 19.8317 227.753 18.5442C227.833 18.5011 227.898 18.432 227.94 18.3465C227.981 18.2611 227.997 18.1637 227.984 18.0682C227.971 17.9728 227.931 17.8841 227.869 17.8147C227.806 17.7454 227.725 17.699 227.637 17.6821L227.627 17.5108C227.668 17.4951 227.704 17.4653 227.728 17.4259C227.752 17.3864 227.763 17.3396 227.76 17.2926C227.757 17.2455 227.74 17.2009 227.711 17.1654C227.682 17.13 227.643 17.1058 227.6 17.0964L227.581 16.8063C227.795 16.7942 227.997 16.6916 228.142 16.5208C228.287 16.3499 228.365 16.1245 228.357 15.893C228.349 15.6615 228.257 15.4426 228.101 15.2835C227.945 15.1243 227.737 15.0377 227.522 15.0422C227.487 15.0422 227.452 15.0449 227.418 15.0505C227.533 15.0684 227.641 15.1206 227.731 15.201C227.82 15.2815 227.886 15.3871 227.923 15.506C227.96 15.625 227.965 15.7526 227.938 15.8745C227.912 15.9965 227.854 16.1081 227.772 16.1967C227.689 16.2853 227.586 16.3476 227.472 16.3764C227.359 16.4053 227.241 16.3996 227.13 16.3601C227.02 16.3206 226.922 16.2487 226.847 16.1526C226.773 16.0565 226.724 15.9399 226.707 15.8158C226.703 15.8529 226.7 15.8903 226.7 15.9277C226.7 16.1626 226.786 16.3878 226.941 16.5539C227.095 16.7199 227.304 16.8132 227.522 16.8132H227.542L227.523 17.0992C227.48 17.1085 227.441 17.1328 227.412 17.1682C227.384 17.2036 227.366 17.2483 227.363 17.2953C227.36 17.3424 227.372 17.3892 227.396 17.4286C227.42 17.4681 227.455 17.4979 227.496 17.5136L227.486 17.6849C227.398 17.7017 227.318 17.7477 227.255 17.8164C227.193 17.8851 227.153 17.9731 227.139 18.0679C227.126 18.1628 227.141 18.2598 227.181 18.3452C227.222 18.4306 227.286 18.5002 227.365 18.5442C226.609 19.8137 223.854 21.0612 223.854 22.9648C223.851 23.349 223.872 23.733 223.917 24.1142H223.632V24.4803H223.353V25.0466H224.308V29.278H223.626V29.9688H223.917V30.321H224.249L224.021 41.0687H222.436V41.7484H222.769C223.518 41.7484 223.839 42.3452 223.954 43.1188V44.0264L223.604 60.6452H221.452V61.4064H221.859C222.26 61.408 222.648 61.563 222.953 61.8438C223.259 62.1246 223.462 62.513 223.526 62.9398V66.7498L223.318 76.5457H222.704V75.7016H221.963V74.0356C221.963 70.6455 217.521 69.6633 216.738 67.8536C216.846 67.8248 216.942 67.7569 217.008 67.6615C217.075 67.566 217.11 67.4487 217.106 67.3292C217.102 67.2097 217.061 67.0951 216.988 67.0048C216.915 66.9144 216.816 66.8537 216.706 66.8327L216.695 66.6379C216.74 66.6217 216.78 66.5904 216.808 66.5485C216.836 66.5066 216.851 66.4562 216.851 66.4045C216.851 66.3464 216.833 66.2902 216.798 66.2455C216.764 66.2009 216.716 66.1706 216.663 66.16L216.621 65.5024L216.578 66.16C216.525 66.1706 216.477 66.2009 216.443 66.2455C216.409 66.2902 216.39 66.3464 216.39 66.4045C216.39 66.4562 216.405 66.5066 216.433 66.5485C216.461 66.5904 216.501 66.6217 216.546 66.6379L216.535 66.8327C216.425 66.8537 216.326 66.9144 216.253 67.0048C216.18 67.0951 216.139 67.2097 216.135 67.3292C216.131 67.4487 216.166 67.566 216.233 67.6615C216.299 67.7569 216.395 67.8248 216.503 67.8536C215.72 69.6647 211.278 70.6455 211.278 74.0356V75.7016H210.537V76.5457H201.527L201.143 58.1489H201.173V56.3213C201.249 55.8192 201.488 55.3624 201.847 55.0323C202.207 54.7021 202.663 54.5201 203.135 54.5185H203.614V53.6233H201.049L200.648 34.6615H200.669V33.0162C200.805 32.1059 201.182 31.4055 202.065 31.4055H202.459V30.6042H200.562L200.292 17.9667H200.677V17.5523H201.019V16.7331H200.218V11.7599H201.348V11.0926H201.018V10.6644H200.682C200.736 10.2164 200.761 9.76498 200.757 9.31332C200.757 7.07675 197.513 5.62762 196.623 4.12046C196.718 4.07048 196.795 3.9899 196.844 3.89011C196.893 3.79032 196.912 3.67638 196.898 3.56441C196.884 3.45244 196.837 3.3481 196.765 3.26617C196.693 3.18423 196.598 3.12885 196.495 3.10785L196.481 2.90064C196.528 2.88367 196.569 2.85139 196.598 2.8083C196.627 2.76521 196.642 2.71346 196.643 2.66027C196.642 2.60116 196.623 2.54407 196.587 2.49889C196.552 2.45372 196.503 2.42331 196.449 2.41298L196.426 2.07038C196.552 2.05687 196.674 2.01678 196.786 1.9524C196.897 1.88802 196.996 1.8006 197.076 1.69516C197.156 1.58971 197.216 1.46829 197.253 1.33784C197.289 1.20738 197.302 1.07044 197.289 0.934836C197.277 0.799229 197.239 0.667605 197.18 0.547493C197.12 0.42738 197.039 0.321127 196.941 0.234795C196.843 0.148463 196.73 0.0837477 196.609 0.0443396C196.488 0.00493149 196.361 -0.00840006 196.235 0.00511533C196.37 0.0261346 196.498 0.0873271 196.603 0.181844C196.708 0.27636 196.786 0.400478 196.829 0.540309C196.873 0.68014 196.879 0.830172 196.847 0.973622C196.816 1.11707 196.748 1.24828 196.652 1.35258C196.555 1.45687 196.433 1.53014 196.3 1.56419C196.167 1.59823 196.028 1.5917 195.898 1.54534C195.768 1.49898 195.653 1.41461 195.565 1.30167C195.477 1.18872 195.42 1.05167 195.4 0.905823C195.395 0.949318 195.392 0.993155 195.391 1.03706C195.391 1.3132 195.493 1.57793 195.675 1.77319C195.856 1.96845 196.102 2.07831 196.358 2.07867H196.381L196.359 2.41575C196.305 2.42608 196.256 2.45647 196.221 2.50165C196.186 2.54682 196.166 2.60393 196.166 2.66303C196.166 2.71623 196.182 2.76798 196.211 2.81107C196.24 2.85416 196.281 2.88644 196.327 2.9034L196.314 3.10647C196.211 3.12594 196.117 3.17987 196.043 3.26063C195.97 3.34138 195.923 3.44487 195.907 3.55643C195.892 3.66799 195.909 3.78196 195.957 3.88219C196.005 3.98243 196.081 4.06385 196.175 4.11493C195.277 5.60827 192.044 7.07537 192.044 9.31194C192.041 9.76358 192.066 10.215 192.119 10.663H191.784V11.0926H191.454V11.7599H192.584V16.7331H191.783V17.5523H192.121V17.9667H192.506L192.238 30.6042H190.377V31.4055H190.772C191.653 31.4055 192.031 32.1059 192.166 33.0162V34.0841L191.752 53.6123H189.22V54.5074H189.699C190.171 54.509 190.627 54.6911 190.987 55.0212C191.346 55.3513 191.585 55.8081 191.661 56.3102V57.9086L191.404 69.6951C188.96 68.2708 185.836 67.3038 185.023 65.9776C185.149 65.9299 185.256 65.8388 185.329 65.7185C185.401 65.5981 185.434 65.4553 185.424 65.3124C185.413 65.1695 185.358 65.0344 185.269 64.9284C185.179 64.8223 185.06 64.7511 184.928 64.726L184.913 64.4856C184.974 64.4645 185.026 64.4221 185.061 64.3652C185.097 64.3083 185.114 64.2403 185.109 64.1719C185.105 64.1035 185.079 64.0387 185.036 63.9879C184.993 63.9371 184.936 63.9032 184.873 63.8916L184.849 63.4938C185.151 63.4798 185.435 63.3398 185.643 63.1036C185.85 62.8673 185.964 62.5533 185.961 62.2281C185.957 61.9029 185.836 61.592 185.623 61.3612C185.41 61.1305 185.123 60.9981 184.821 60.992C184.772 60.9921 184.723 60.9958 184.675 61.003C184.837 61.0287 184.99 61.1026 185.116 61.2163C185.241 61.3301 185.335 61.4793 185.387 61.6473C185.439 61.8153 185.446 61.9955 185.408 62.1677C185.37 62.3399 185.289 62.4973 185.172 62.6225C185.056 62.7476 184.91 62.8355 184.75 62.8763C184.59 62.9171 184.423 62.9093 184.267 62.8536C184.111 62.798 183.973 62.6968 183.867 62.5612C183.762 62.4257 183.693 62.2612 183.669 62.0861C183.662 62.1383 183.659 62.1909 183.659 62.2435C183.659 62.5704 183.778 62.8843 183.99 63.118C184.202 63.3516 184.49 63.4865 184.794 63.4938L184.767 63.8916C184.705 63.9045 184.649 63.939 184.607 63.9898C184.565 64.0406 184.54 64.1049 184.536 64.1727C184.531 64.2405 184.548 64.3079 184.583 64.3645C184.617 64.4211 184.669 64.4637 184.728 64.4856L184.713 64.726C184.582 64.7511 184.462 64.8223 184.373 64.9284C184.283 65.0344 184.229 65.1695 184.218 65.3124C184.207 65.4553 184.24 65.5981 184.313 65.7185C184.385 65.8388 184.493 65.9299 184.618 65.9776C183.232 68.239 175.129 69.4533 175.129 73.6778V75.75H173.784V76.5319H172.52V54.0557C172.686 53.8469 172.891 53.6792 173.122 53.564C173.353 53.4488 173.605 53.3889 173.859 53.3885H174.296V52.5927H172.532V41.5494H173.686V40.7689H173.301V40.2647H172.909C172.971 39.7406 173 39.2126 172.996 38.6843C172.996 36.0692 169.203 34.3742 168.162 32.6129C168.261 32.56 168.345 32.4776 168.402 32.3755C168.46 32.2734 168.489 32.1557 168.487 32.0362C168.485 31.9168 168.451 31.8005 168.389 31.701C168.328 31.6015 168.241 31.523 168.14 31.4745C168.164 31.4287 168.178 31.3769 168.178 31.324C168.178 31.2592 168.159 31.1962 168.123 31.1444C168.087 31.0926 168.036 31.0548 167.978 31.0366L167.899 29.8196L167.819 31.0366C167.762 31.0548 167.711 31.0926 167.675 31.1444C167.639 31.1962 167.619 31.2592 167.619 31.324C167.62 31.3769 167.633 31.4287 167.658 31.4745C167.557 31.523 167.471 31.6011 167.41 31.6999C167.349 31.7987 167.315 31.914 167.312 32.0327C167.309 32.1514 167.337 32.2686 167.393 32.3708C167.45 32.4729 167.531 32.5559 167.63 32.6101C166.59 34.3562 162.8 36.0706 162.8 38.6885C162.795 39.2167 162.824 39.7448 162.886 40.2688H162.494V40.7731H162.109V41.5536H163.263V52.5969H161.497V53.3926H161.923C162.178 53.3931 162.43 53.4529 162.661 53.5681C162.892 53.6833 163.098 53.851 163.263 54.0598V62.3485H162.585V60.7419H161.364V57.9984C161.364 52.4145 154.046 50.7969 152.757 47.8171C152.934 47.7697 153.092 47.6581 153.202 47.5009C153.312 47.3437 153.369 47.1504 153.363 46.9534C153.357 46.7564 153.289 46.5676 153.169 46.4185C153.049 46.2695 152.886 46.1692 152.705 46.1345L152.685 45.8154C152.761 45.7831 152.826 45.7255 152.87 45.6509C152.913 45.5763 152.934 45.4887 152.928 45.4007C152.922 45.3127 152.891 45.229 152.838 45.1617C152.785 45.0944 152.713 45.047 152.634 45.0265L152.563 43.9435L152.493 45.0265C152.413 45.047 152.341 45.0944 152.289 45.1617C152.236 45.229 152.204 45.3127 152.198 45.4007C152.193 45.4887 152.213 45.5763 152.257 45.6509C152.3 45.7255 152.365 45.7831 152.441 45.8154L152.42 46.1345C152.239 46.1694 152.076 46.2698 151.956 46.4189C151.837 46.5681 151.768 46.757 151.762 46.954C151.757 47.151 151.814 47.3442 151.924 47.5013C152.035 47.6584 152.192 47.7698 152.37 47.8171C151.087 50.7982 143.762 52.4145 143.762 57.9984V60.7419H142.542V62.3416H140.736V49.1253C140.831 49.0054 140.949 48.9089 141.082 48.8421C141.215 48.7754 141.359 48.7401 141.505 48.7385H141.75V48.2785H140.724V41.8893H141.391V41.4431H141.168V41.1516H140.941C140.977 40.8488 140.994 40.5437 140.991 40.2384C140.991 38.7189 138.797 37.7518 138.194 36.724C138.251 36.6941 138.299 36.6477 138.332 36.5901C138.365 36.5324 138.383 36.4659 138.383 36.398C138.382 36.3276 138.363 36.2587 138.328 36.1997C138.292 36.1407 138.241 36.094 138.182 36.0651C138.196 36.0389 138.204 36.0088 138.205 35.9781C138.204 35.9407 138.193 35.9045 138.172 35.8747C138.152 35.8448 138.122 35.8229 138.089 35.8123L138.043 35.1091L137.997 35.8123C137.964 35.8229 137.935 35.8448 137.914 35.8747C137.893 35.9045 137.882 35.9407 137.881 35.9781C137.882 36.0088 137.89 36.0389 137.905 36.0651C137.846 36.093 137.796 36.1381 137.761 36.1951C137.725 36.2522 137.705 36.319 137.703 36.3878C137.701 36.4565 137.718 36.5245 137.75 36.5837C137.783 36.643 137.83 36.6911 137.887 36.7227C137.285 37.7325 135.094 38.7244 135.094 40.2384C135.091 40.5437 135.107 40.8487 135.142 41.1516H134.915V41.4431H134.694V41.8948H135.359V48.284H134.333V48.744H134.579C134.726 48.7451 134.871 48.7802 135.003 48.8469C135.136 48.9137 135.254 49.0105 135.349 49.1308V62.3472H133.052V62.0543C133.052 46.4025 103.045 41.8989 97.899 33.5246C98.3632 33.3471 98.7598 33.0092 99.0273 32.5637C99.2948 32.1181 99.4181 31.5899 99.378 31.061C99.338 30.5321 99.1367 30.0324 98.8057 29.6395C98.4747 29.2466 98.0324 28.9825 97.5476 28.8885L97.4899 27.996C97.7153 27.9178 97.9098 27.7605 98.0425 27.5492C98.1751 27.3378 98.2382 27.0848 98.2217 26.8303C98.2052 26.5758 98.1099 26.3347 97.9513 26.1453C97.7926 25.956 97.5796 25.8294 97.3463 25.7857L97.2655 24.3131C97.8524 24.3042 98.4314 24.166 98.9668 23.907C99.5022 23.648 99.9828 23.2738 100.379 22.8073C100.775 22.3408 101.079 21.7919 101.27 21.1944C101.462 20.5968 101.539 19.9633 101.495 19.3328C101.451 18.7023 101.288 18.0881 101.016 17.528C100.743 16.9679 100.367 16.4738 99.9112 16.0761C99.455 15.6783 98.928 15.3853 98.3628 15.2151C97.7975 15.0449 97.2059 15.0011 96.6244 15.0864C97.2273 15.1803 97.794 15.4531 98.2612 15.8742C98.7284 16.2954 99.0777 16.8483 99.2698 17.471C99.4619 18.0938 99.4895 18.7619 99.3492 19.4005C99.209 20.0391 98.9066 20.6232 98.4759 21.0872C98.0451 21.5512 97.503 21.877 96.9102 22.0281C96.3173 22.1791 95.6972 22.1495 95.1191 21.9425C94.541 21.7355 94.0278 21.3593 93.6368 20.856C93.2459 20.3527 92.9927 19.7421 92.9055 19.0926C92.8816 19.2873 92.8687 19.4834 92.8671 19.6797C92.8667 20.8892 93.3054 22.0509 94.0894 22.9166C94.8734 23.7824 95.9405 24.2835 97.0629 24.3131L96.9706 25.7871C96.7373 25.8308 96.5243 25.9574 96.3656 26.1467C96.2069 26.336 96.1117 26.5772 96.0952 26.8317C96.0787 27.0861 96.1418 27.3392 96.2744 27.5505C96.407 27.7618 96.6016 27.9192 96.827 27.9974L96.7692 28.8898C96.2841 28.9836 95.8413 29.2477 95.5099 29.6408C95.1786 30.034 94.9772 30.5342 94.9373 31.0634C94.8973 31.5927 95.021 32.1214 95.289 32.5671C95.5571 33.0127 95.9544 33.3504 96.4192 33.5274C91.2808 41.9059 61.2647 46.4025 61.2647 62.0557V69.7255H58.8847V60.6977C58.9778 60.5803 59.0934 60.4859 59.2236 60.421C59.3537 60.3562 59.4953 60.3224 59.6387 60.322H59.8785V59.8744H58.8847V53.6578H59.5336V53.2185H59.3169V52.9422H59.0963C59.1314 52.6473 59.1477 52.35 59.145 52.0526C59.145 50.5814 57.0112 49.6281 56.4251 48.6363C56.4802 48.6074 56.5266 48.5625 56.5591 48.5065C56.5915 48.4506 56.6087 48.3859 56.6085 48.3199C56.6082 48.2514 56.5896 48.1845 56.5551 48.1269C56.5205 48.0694 56.4715 48.0237 56.4136 47.9953C56.4275 47.9697 56.435 47.9407 56.4354 47.911C56.4353 47.8747 56.4242 47.8395 56.4039 47.8106C56.3835 47.7816 56.355 47.7607 56.3226 47.7508L56.279 47.06L56.2341 47.7508C56.2017 47.7607 56.1731 47.7816 56.1528 47.8106C56.1324 47.8395 56.1213 47.8747 56.1212 47.911C56.121 47.9407 56.1285 47.97 56.143 47.9953C56.0864 48.0226 56.038 48.0665 56.0035 48.1221C55.969 48.1777 55.9498 48.2426 55.9481 48.3094C55.9463 48.3763 55.9622 48.4423 55.9937 48.4998C56.0252 48.5574 56.0712 48.6042 56.1264 48.6349C55.5416 49.6171 53.4091 50.5827 53.4091 52.054C53.4064 52.3514 53.4226 52.6486 53.4578 52.9436H53.2424V53.2199H53.0243V53.6592H53.6732V59.8758H52.6794V60.3233H52.9192C53.0626 60.3238 53.2042 60.3575 53.3344 60.4224C53.4645 60.4872 53.5801 60.5816 53.6732 60.6991V64.8434C51.0585 61.6095 46.2356 59.8978 45.1379 57.3463C45.3493 57.2901 45.5364 57.1573 45.6679 56.9702C45.7993 56.7831 45.8671 56.5531 45.8599 56.3186C45.8527 56.0841 45.7709 55.8594 45.6283 55.6821C45.4856 55.5048 45.2908 55.3856 45.0763 55.3446L45.052 54.9647C45.1472 54.931 45.2292 54.864 45.2851 54.7744C45.341 54.6847 45.3675 54.5776 45.3604 54.4699C45.3533 54.3622 45.3131 54.2601 45.2461 54.1798C45.1791 54.0995 45.0891 54.0456 44.9904 54.0267L44.9071 52.7378L44.8224 54.0267C44.7246 54.0469 44.6357 54.1014 44.5696 54.1817C44.5035 54.262 44.4639 54.3636 44.457 54.4707C44.4502 54.5778 44.4764 54.6843 44.5316 54.7736C44.5867 54.863 44.6678 54.9302 44.7621 54.9647L44.7378 55.3446C44.5233 55.3856 44.3285 55.5048 44.1858 55.6821C44.0432 55.8594 43.9614 56.0841 43.9542 56.3186C43.947 56.5531 44.0148 56.7831 44.1462 56.9702C44.2777 57.1573 44.4648 57.2901 44.6762 57.3463C43.1438 60.8939 34.4379 62.8141 34.4379 69.4575V72.7219H32.9812V74.1033H31.3846L31.1808 64.5022H31.2064V62.9481C31.2708 62.5213 31.4736 62.1329 31.7789 61.8521C32.0842 61.5713 32.472 61.4163 32.8735 61.4147H33.2812V60.6452H31.1012L30.7589 44.5209H30.7794V43.1312C30.8935 42.3576 31.2154 41.7608 31.9643 41.7608H32.3002V41.0811H30.6832L30.4562 30.3335H30.7883V29.977H31.0782V29.2863H30.3972V25.0466H31.3577V24.4803H31.0782V24.1142H30.7922C30.8379 23.7331 30.8593 23.3491 30.8563 22.9648C30.8563 21.0639 28.098 19.8317 27.3414 18.5442C27.4215 18.5011 27.487 18.432 27.5286 18.3465C27.5701 18.2611 27.5856 18.1637 27.5728 18.0682C27.56 17.9728 27.5196 17.8841 27.4574 17.8147C27.3951 17.7454 27.3141 17.699 27.226 17.6821L27.2106 17.5164C27.2527 17.5016 27.2891 17.472 27.3138 17.4324C27.3386 17.3928 27.3504 17.3455 27.3473 17.2978C27.3442 17.2502 27.3264 17.205 27.2968 17.1696C27.2671 17.1341 27.2273 17.1103 27.1837 17.1019L27.1644 16.8118C27.3789 16.7995 27.5803 16.697 27.7253 16.5263C27.8703 16.3556 27.9473 16.1305 27.9397 15.8992C27.9322 15.668 27.8406 15.4493 27.6849 15.29C27.5291 15.1307 27.3215 15.0437 27.1067 15.0477C27.0715 15.0477 27.0364 15.0504 27.0016 15.056C27.1164 15.074 27.2243 15.126 27.3133 15.2063C27.4023 15.2865 27.4688 15.3918 27.5054 15.5105C27.542 15.6291 27.5472 15.7563 27.5206 15.878C27.4939 15.9996 27.4364 16.1109 27.3544 16.1994C27.2725 16.2879 27.1693 16.35 27.0564 16.379C26.9435 16.4079 26.8254 16.4025 26.7152 16.3632C26.605 16.324 26.5071 16.2526 26.4325 16.1569C26.3578 16.0612 26.3093 15.945 26.2924 15.8213C26.2872 15.8584 26.2846 15.8958 26.2847 15.9332C26.2847 16.1681 26.3713 16.3933 26.5255 16.5594C26.6796 16.7254 26.8887 16.8187 27.1067 16.8187H27.1272L27.108 17.1047C27.0644 17.113 27.0245 17.1368 26.9949 17.1723C26.9653 17.2078 26.9475 17.253 26.9444 17.3006C26.9413 17.3482 26.9531 17.3956 26.9778 17.4352C27.0026 17.4748 27.0389 17.5043 27.0811 17.5191L27.0695 17.6904C26.9819 17.7074 26.9015 17.7536 26.8395 17.8224C26.7775 17.8912 26.7371 17.9792 26.7239 18.074C26.7107 18.1688 26.7255 18.2657 26.7661 18.351C26.8067 18.4364 26.8711 18.5059 26.9503 18.5497C26.1937 19.8193 23.4392 21.0667 23.4392 22.9703C23.4358 23.3546 23.4568 23.7386 23.502 24.1197H23.2173V24.4858H22.9404V25.0522H23.9021V29.2836H23.2199V29.9743H23.511V30.3266H23.8431L23.6149 41.0742H22.0299V41.7539H22.3671C23.116 41.7539 23.4366 42.3507 23.552 43.1243V44.0319L23.1994 60.6452H21.0463V61.4064H21.4528C21.8542 61.4083 22.2419 61.5634 22.5471 61.8441C22.8523 62.1249 23.0553 62.5131 23.1199 62.9398V64.2991L22.9109 74.095H22.2979V73.2496H21.5567V71.5918C21.5567 68.2017 17.1146 67.2195 16.3324 65.4098C16.4401 65.381 16.5354 65.3132 16.6023 65.2177C16.6692 65.1223 16.7037 65.005 16.6999 64.8854C16.6962 64.7659 16.6544 64.6514 16.5817 64.561C16.509 64.4706 16.4096 64.4099 16.3003 64.3889L16.2875 64.1955C16.3356 64.1778 16.3769 64.1434 16.4051 64.0978C16.4332 64.0521 16.4465 63.9978 16.443 63.9431C16.4395 63.8885 16.4193 63.8366 16.3857 63.7956C16.352 63.7545 16.3066 63.7266 16.2567 63.7162L16.2144 63.0586L16.1708 63.7162C16.1209 63.7266 16.0756 63.7545 16.0419 63.7956C16.0082 63.8366 15.988 63.8885 15.9845 63.9431C15.981 63.9978 15.9944 64.0521 16.0225 64.0978C16.0506 64.1434 16.0919 64.1778 16.14 64.1955L16.1272 64.3889C16.0179 64.4101 15.9187 64.4709 15.8461 64.5614C15.7735 64.6519 15.732 64.7664 15.7283 64.886C15.7247 65.0055 15.7593 65.1227 15.8263 65.2181C15.8933 65.3134 15.9887 65.3811 16.0964 65.4098C15.3142 67.2209 10.8708 68.2017 10.8708 71.5918V73.2496H10.1335V74.095H4V99H331V54.7644C323.712 44.6992 302.559 40.4249 298.319 33.5191ZM28.0198 25.0466V25.0038C28.0191 24.9477 28.0324 24.8923 28.0582 24.8436C28.0847 24.7884 28.1248 24.7421 28.1741 24.71C28.2235 24.6778 28.2801 24.6609 28.3378 24.6612C28.3955 24.6616 28.452 24.6787 28.5015 24.7108C28.5509 24.7429 28.5914 24.7888 28.6186 24.8436C28.6445 24.8923 28.6577 24.9477 28.6571 25.0038V29.2766H28.0159L28.0198 25.0466ZM26.8297 25.0466V25.0038C26.8291 24.9477 26.8423 24.8923 26.8682 24.8436C26.8947 24.7884 26.9348 24.7421 26.9841 24.71C27.0335 24.6778 27.0901 24.6609 27.1478 24.6612C27.2055 24.6614 27.2621 24.6785 27.3116 24.7106C27.361 24.7427 27.4015 24.7887 27.4286 24.8436C27.4509 24.8858 27.4632 24.9332 27.4645 24.9817V29.2766H26.8233L26.8297 25.0466ZM25.6423 25.0466V25.0038C25.6416 24.9477 25.6549 24.8923 25.6807 24.8436C25.7078 24.7889 25.748 24.743 25.7972 24.711C25.8464 24.6789 25.9028 24.6617 25.9603 24.6612C26.0182 24.6607 26.0751 24.6774 26.1247 24.7096C26.1742 24.7418 26.2146 24.7882 26.2411 24.8436C26.267 24.8923 26.2803 24.9477 26.2796 25.0038V29.2766H25.6384L25.6423 25.0466ZM25.0896 25.0466V29.278H24.4484V25.0466V25.0038C24.4477 24.9477 24.461 24.8923 24.4869 24.8436C24.5139 24.7889 24.5541 24.743 24.6033 24.711C24.6526 24.6789 24.7089 24.6617 24.7664 24.6612C24.8243 24.661 24.881 24.6778 24.9306 24.71C24.9801 24.7422 25.0205 24.7884 25.0473 24.8436C25.0684 24.8823 25.0807 24.9258 25.0832 24.9707L25.0896 25.0466ZM28.9764 60.6452H25.3217V56.5009C25.3216 55.7173 25.5303 54.9501 25.9231 54.2905L27.149 52.2322L28.375 54.2905C28.7684 54.9498 28.9772 55.7172 28.9764 56.5009V60.6452ZM28.9764 41.0811H25.3217V37.6344C25.3216 36.8508 25.5303 36.0836 25.9231 35.4241L27.149 33.3657L28.375 35.4241C28.7684 36.0833 28.9772 36.8507 28.9764 37.6344V41.0811ZM29.8445 25.0563V29.2877H29.2034V25.0038C29.2027 24.9477 29.216 24.8923 29.2418 24.8436C29.2687 24.7886 29.309 24.7426 29.3584 24.7105C29.4078 24.6784 29.4644 24.6615 29.522 24.6615C29.5797 24.6615 29.6363 24.6784 29.6856 24.7105C29.735 24.7426 29.7753 24.7886 29.8022 24.8436C29.8281 24.8923 29.8414 24.9477 29.8407 25.0038L29.8445 25.0563ZM54.9389 59.8771H54.0284V57.8823C54.026 57.522 54.0762 57.1635 54.1772 56.82L54.4837 55.8309L54.7889 56.82C54.8903 57.1634 54.9409 57.5219 54.9389 57.8823V59.8771ZM57.3754 59.8771H55.1954V57.8049C55.1989 57.404 55.3251 57.0156 55.5544 56.6998L56.2867 55.6678L57.0189 56.6998C57.2482 57.0156 57.3744 57.404 57.3779 57.8049L57.3754 59.8771ZM58.5372 59.8771H57.6267V57.8823C57.6243 57.522 57.6745 57.1635 57.7755 56.82L58.082 55.8309L58.3871 56.82C58.4885 57.1634 58.5392 57.5219 58.5372 57.8823V59.8771ZM136.67 48.2882H135.734V46.2395C135.731 45.8692 135.783 45.5009 135.887 45.1481L136.202 44.1314L136.516 45.1481C136.62 45.5009 136.672 45.8692 136.67 46.2395V48.2882ZM139.173 48.2882H136.927V46.14C136.93 45.727 137.06 45.3266 137.297 45.0017L138.049 43.9407L138.803 45.0017C139.04 45.3269 139.17 45.7271 139.173 46.14V48.2882ZM140.367 48.2882H139.431V46.2395C139.428 45.8692 139.48 45.5008 139.584 45.1481L139.899 44.1314L140.213 45.1481C140.317 45.5009 140.369 45.8692 140.367 46.2395V48.2882ZM165.51 52.6024H163.89V49.0618C163.886 48.4215 163.976 47.7846 164.157 47.1747L164.701 45.4161L165.243 47.1747C165.424 47.7846 165.514 48.4215 165.51 49.0618V52.6024ZM169.835 52.6024H165.955V48.9029C165.961 48.1885 166.186 47.4963 166.596 46.9343L167.898 45.1011L169.199 46.9343C169.609 47.4963 169.834 48.1885 169.84 48.9029L169.835 52.6024ZM171.9 52.6024H170.28V49.0618C170.277 48.4216 170.367 47.7847 170.547 47.1747L171.091 45.4161L171.633 47.1747C171.814 47.7846 171.904 48.4215 171.9 49.0618V52.6024ZM197.419 11.7709V11.7226C197.418 11.6561 197.434 11.5907 197.465 11.5333C197.496 11.4681 197.543 11.4134 197.601 11.3754C197.659 11.3373 197.726 11.3174 197.794 11.3178C197.862 11.3184 197.928 11.3388 197.986 11.3767C198.044 11.4147 198.091 11.4688 198.123 11.5333C198.154 11.5907 198.17 11.6561 198.169 11.7226V16.7455H197.419V11.7709ZM196.02 11.7709V11.7226C196.019 11.6561 196.035 11.5907 196.066 11.5333C196.097 11.4681 196.144 11.4134 196.202 11.3754C196.26 11.3373 196.327 11.3174 196.395 11.3178C196.463 11.3184 196.529 11.3388 196.587 11.3767C196.645 11.4147 196.692 11.4688 196.724 11.5333C196.75 11.583 196.765 11.639 196.766 11.6963V16.7455H196.017L196.02 11.7709ZM194.623 11.7709V11.7226C194.622 11.6563 194.638 11.5911 194.668 11.5333C194.7 11.4688 194.747 11.4147 194.805 11.3767C194.863 11.3388 194.93 11.3185 194.997 11.3178C195.066 11.3175 195.132 11.3375 195.19 11.3756C195.249 11.4136 195.296 11.4682 195.327 11.5333C195.358 11.5908 195.373 11.6563 195.372 11.7226V16.7455H194.623V11.7709ZM193.973 11.7709V16.7441H193.225V11.7709V11.7226C193.224 11.6561 193.24 11.5907 193.271 11.5333C193.303 11.4687 193.351 11.4145 193.409 11.3765C193.467 11.3386 193.533 11.3183 193.601 11.3178C193.669 11.3175 193.736 11.3375 193.793 11.3755C193.851 11.4136 193.898 11.4682 193.929 11.5333C193.954 11.5786 193.969 11.6298 193.972 11.6825L193.973 11.7709ZM198.544 53.6288H194.246V48.7551C194.246 47.8338 194.492 46.932 194.954 46.1566L196.395 43.7363L197.837 46.1566C198.298 46.932 198.544 47.8338 198.544 48.7551V53.6288ZM198.544 30.6208H194.246V26.5552C194.246 25.6339 194.492 24.732 194.954 23.9567L196.395 21.5364L197.837 23.9567C198.299 24.732 198.544 25.6339 198.544 26.5552V30.6208ZM199.57 11.7751V16.7483H198.82V11.7129C198.819 11.6465 198.835 11.581 198.866 11.5236C198.898 11.4587 198.945 11.4044 199.003 11.3664C199.061 11.3284 199.127 11.3083 199.195 11.3083C199.263 11.3083 199.33 11.3284 199.388 11.3664C199.446 11.4044 199.493 11.4587 199.524 11.5236C199.555 11.581 199.571 11.6465 199.57 11.7129V11.7751ZM228.423 25.0605V25.0038C228.423 24.9477 228.436 24.8923 228.462 24.8436C228.488 24.7882 228.529 24.7418 228.578 24.7096C228.628 24.6774 228.685 24.6607 228.743 24.6612C228.8 24.6617 228.856 24.6789 228.906 24.711C228.955 24.743 228.995 24.7889 229.022 24.8436C229.048 24.8923 229.061 24.9477 229.061 25.0038V29.2766H228.419L228.423 25.0605ZM227.233 25.0605V25.0038C227.233 24.9477 227.246 24.8923 227.272 24.8436C227.298 24.7882 227.339 24.7418 227.388 24.7096C227.438 24.6774 227.495 24.6607 227.553 24.6612C227.61 24.6617 227.666 24.6789 227.716 24.711C227.765 24.743 227.805 24.7889 227.832 24.8436C227.854 24.8858 227.867 24.9332 227.868 24.9817V29.2766H227.227L227.233 25.0605ZM226.046 25.0605V25.0038C226.045 24.9477 226.058 24.8923 226.084 24.8436C226.111 24.7887 226.152 24.7427 226.201 24.7106C226.251 24.6785 226.307 24.6614 226.365 24.6612C226.423 24.6609 226.479 24.6778 226.529 24.71C226.578 24.7421 226.618 24.7884 226.645 24.8436C226.671 24.8923 226.684 24.9477 226.683 25.0038V29.2766H226.042L226.046 25.0605ZM225.493 25.0605V29.2918H224.852V25.0466V25.0038C224.851 24.9477 224.865 24.8923 224.89 24.8436C224.918 24.7887 224.958 24.7427 225.007 24.7106C225.057 24.6785 225.113 24.6614 225.171 24.6612C225.229 24.6609 225.286 24.6778 225.335 24.71C225.384 24.7421 225.424 24.7884 225.451 24.8436C225.472 24.8823 225.484 24.9258 225.487 24.9707L225.493 25.0605ZM229.381 60.6452H225.727V56.5009C225.726 55.7173 225.935 54.9501 226.328 54.2905L227.554 52.2322L228.781 54.2905C229.173 54.9502 229.382 55.7174 229.381 56.5009V60.6452ZM229.381 41.0811H225.727V37.6344C225.726 36.8508 225.935 36.0836 226.328 35.4241L227.554 33.3657L228.781 35.4241C229.173 36.0837 229.382 36.8509 229.381 37.6344V41.0811ZM230.249 25.0563V29.2877H229.608V25.0038C229.608 24.9477 229.621 24.8923 229.647 24.8436C229.674 24.7886 229.714 24.7426 229.763 24.7105C229.813 24.6784 229.869 24.6615 229.927 24.6615C229.985 24.6615 230.041 24.6784 230.09 24.7105C230.14 24.7426 230.18 24.7886 230.207 24.8436C230.233 24.8923 230.246 24.9477 230.246 25.0038L230.249 25.0563ZM255.341 59.8675H254.429V57.8823C254.427 57.5219 254.478 57.1634 254.579 56.82L254.885 55.8309L255.191 56.82C255.292 57.1634 255.343 57.5219 255.341 57.8823V59.8675ZM257.778 59.8675H255.598V57.7953C255.601 57.3944 255.727 57.0059 255.957 56.6901L256.689 55.6582L257.421 56.6901C257.65 57.0059 257.777 57.3944 257.78 57.7953L257.778 59.8675ZM258.939 59.8675H258.034V57.8823C258.032 57.5219 258.083 57.1634 258.184 56.82L258.489 55.8309L258.795 56.82C258.897 57.1633 258.947 57.5219 258.945 57.8823L258.939 59.8675Z" fill="url(#paint0_linear_27_1000)" fill-opacity="0.33" shape-rendering="crispEdges"/>
</g>
<defs>
<filter id="filter0_d_27_1000" x="0" y="0" width="335" height="107" filterUnits="userSpaceOnUse" color-interpolation-filters="sRGB">
<feFlood flood-opacity="0" result="BackgroundImageFix"/>
<feColorMatrix in="SourceAlpha" type="matrix" values="0 0 0 0 0 0 0 0 0 0 0 0 0 0 0 0 0 0 127 0" result="hardAlpha"/>
<feOffset dy="4"/>
<feGaussianBlur stdDeviation="2"/>
<feComposite in2="hardAlpha" operator="out"/>
<feColorMatrix type="matrix" values="0 0 0 0 0 0 0 0 0 0 0 0 0 0 0 0 0 0 0.25 0"/>
<feBlend mode="normal" in2="BackgroundImageFix" result="effect1_dropShadow_27_1000"/>
<feBlend mode="normal" in="SourceGraphic" in2="effect1_dropShadow_27_1000" result="shape"/>
</filter>
<linearGradient id="paint0_linear_27_1000" x1="167.5" y1="0" x2="167.5" y2="238.457" gradientUnits="userSpaceOnUse">
<stop stop-color="#A44AFF"/>
<stop offset="0.0001" stop-color="#240F4F"/>
</linearGradient>
</defs>
</svg>
