<svg width="27" height="26" viewBox="0 0 27 26" fill="none" xmlns="http://www.w3.org/2000/svg">
<path d="M26.0773 0H25.3136C24.0671 0 22.958 0.599219 22.2606 1.52344H22.2586C21.0105 1.52344 19.9006 2.12367 19.2035 3.04941V3.04688C17.0976 3.04688 15.3848 4.75556 15.3848 6.85547V10.5192L13.0426 12.8229L10.7004 10.5192V6.85547C10.7004 4.75556 8.98754 3.04688 6.88161 3.04688V3.04941C6.18451 2.12367 5.07467 1.52344 3.82659 1.52344H3.82455C3.12714 0.599219 2.01802 0 0.771568 0H0.0078125V11.9651L5.41932 18.3828H4.59034V26H21.4948V18.3828H20.6658L26.0773 11.9651V0ZM9.17288 6.85547V9.16398C8.70688 8.88354 8.186 8.70605 7.64537 8.64348V5.33203C7.64537 5.11062 7.6251 4.89328 7.58885 4.68203C8.50703 4.98012 9.17288 5.84137 9.17288 6.85547ZM4.59034 3.17738C5.47936 3.49182 6.11786 4.3388 6.11786 5.33203V8.77089C5.75423 8.87711 5.40859 9.03698 5.09239 9.24518L4.59034 8.74504V3.17738ZM12.2788 24.4766H6.11786V19.9062H12.2788V24.4766ZM12.2788 18.3828H7.41522L1.53532 11.4101V1.654C2.42433 1.96828 3.06283 2.81531 3.06283 3.80859V9.37625L7.86889 14.1695L8.94935 13.0925L6.20996 10.3604C6.51445 10.2145 6.84999 10.138 7.19786 10.138C7.80988 10.138 8.38524 10.3756 8.81804 10.8073L12.2788 14.2112V18.3828ZM19.9673 5.33203C19.9673 4.3388 20.6058 3.49182 21.4948 3.17738V8.74504L20.9928 9.24518C20.6766 9.03698 20.3309 8.87711 19.9673 8.77089V5.33203ZM16.9123 6.85547C16.9123 5.84142 17.5782 4.98012 18.4963 4.68203C18.4591 4.89672 18.4402 5.11416 18.4398 5.33203V8.64348C17.8991 8.70605 17.3783 8.88354 16.9123 9.16398V6.85547ZM19.9673 24.4766H13.8063V19.9062H19.9673V24.4766ZM24.5498 11.4101L18.6699 18.3828H13.8063V14.2112L17.2671 10.8073C17.6999 10.3756 18.2753 10.138 18.8873 10.138C19.2351 10.138 19.5707 10.2145 19.8752 10.3604L17.1358 13.0924L18.2162 14.1695L23.0223 9.3763V3.80859C23.0223 2.81536 23.6608 1.96838 24.5498 1.65395V11.4101Z" fill="white"/>
<path d="M16.9121 21.4297H18.4396V22.9531H16.9121V21.4297Z" fill="white"/>
<path d="M7.64551 21.4297H9.17302V22.9531H7.64551V21.4297Z" fill="white"/>
</svg>
