<svg width="19" height="28" viewBox="0 0 19 28" fill="none" xmlns="http://www.w3.org/2000/svg">
<path d="M16.4408 22.8066V21.825C16.4408 20.2615 15.5695 18.8558 14.1673 18.1564L11.5055 16.8292V11.8716C11.5055 10.5647 10.8963 9.36799 9.87698 8.60193C9.93017 8.31312 10.1073 8.0702 10.3376 7.9938C12.0204 7.43533 13.1505 5.87121 13.1505 4.10153C13.1505 1.56649 10.8794 -0.353973 8.35304 0.0557457C6.39931 0.372277 4.92527 2.18746 4.92527 4.27713V7.04979C2.8752 9.21311 1.63525 12.1443 1.63525 15.3043V19.9376C1.63525 21.1656 1.97862 22.3407 2.61951 23.3545C1.08258 23.9491 -0.00976562 25.4399 -0.00976562 27.1801V28.0004H15.6181C16.9786 28.0004 18.0858 26.8962 18.0858 25.5395C18.0863 24.9779 17.9335 24.4268 17.6436 23.9453C17.3538 23.4638 16.938 23.0702 16.4408 22.8066ZM13.5909 19.7108C14.3383 20.1532 14.7956 20.9478 14.7956 21.825V22.2138L12.9323 21.5943L13.5909 19.7108ZM6.5705 4.27713C6.5705 2.98322 7.45042 1.86426 8.61734 1.67499C10.1957 1.41867 11.5055 2.63011 11.5055 4.10153C11.5062 4.61832 11.3435 5.12216 11.0406 5.54147C10.7377 5.96078 10.31 6.27423 9.8183 6.43729C9.16907 6.65264 8.66444 7.15424 8.40633 7.79146L6.5705 6.87588V4.27713ZM3.28026 15.3043C3.28026 12.7277 4.21589 10.2938 5.92621 8.38919L8.49632 9.67052C9.33791 10.0898 9.86053 10.9338 9.86053 11.8717V17.843L12.1094 18.9648L11.3717 21.0758L8.21546 20.0263V12.3049H6.57045V21.2087L9.06198 22.0371C7.96492 23.2518 6.22818 23.7407 4.60893 23.2027L4.55684 23.1852C3.73264 22.2985 3.28026 21.1533 3.28026 19.9376V15.3043ZM15.6181 26.3598H1.77617C2.10243 25.4416 2.96069 24.7727 3.97939 24.7224C4.05243 24.7408 4.82394 25.0609 5.94869 25.0609C7.82439 25.0609 9.61591 24.1575 10.7214 22.5885L15.4426 24.1579C15.7334 24.2544 15.9864 24.4398 16.1656 24.6878C16.3448 24.9358 16.4411 25.2338 16.4408 25.5395C16.4408 25.9917 16.0718 26.3598 15.6181 26.3598H15.6181Z" fill="white"/>
</svg>
