<svg width="19" height="28" viewBox="0 0 19 28" fill="none" xmlns="http://www.w3.org/2000/svg">
<path d="M16.9408 22.8066V21.825C16.9408 20.2615 16.0695 18.8558 14.6673 18.1564L12.0055 16.8292V11.8716C12.0055 10.5647 11.3963 9.36799 10.377 8.60193C10.4302 8.31312 10.6073 8.0702 10.8376 7.9938C12.5204 7.43533 13.6505 5.87121 13.6505 4.10153C13.6505 1.56649 11.3794 -0.353973 8.85304 0.0557457C6.89931 0.372277 5.42527 2.18746 5.42527 4.27713V7.04979C3.3752 9.21311 2.13525 12.1443 2.13525 15.3043V19.9376C2.13525 21.1656 2.47862 22.3407 3.11951 23.3545C1.58258 23.9491 0.490234 25.4399 0.490234 27.1801V28.0004H16.1181C17.4786 28.0004 18.5858 26.8962 18.5858 25.5395C18.5863 24.9779 18.4335 24.4268 18.1436 23.9453C17.8538 23.4638 17.438 23.0702 16.9408 22.8066ZM14.0909 19.7108C14.8383 20.1532 15.2956 20.9478 15.2956 21.825V22.2138L13.4323 21.5943L14.0909 19.7108ZM7.0705 4.27713C7.0705 2.98322 7.95042 1.86426 9.11734 1.67499C10.6957 1.41867 12.0055 2.63011 12.0055 4.10153C12.0062 4.61832 11.8435 5.12216 11.5406 5.54147C11.2377 5.96078 10.81 6.27423 10.3183 6.43729C9.66907 6.65264 9.16444 7.15424 8.90633 7.79146L7.0705 6.87588V4.27713ZM3.78026 15.3043C3.78026 12.7277 4.71589 10.2938 6.42621 8.38919L8.99632 9.67052C9.83791 10.0898 10.3605 10.9338 10.3605 11.8717V17.843L12.6094 18.9648L11.8717 21.0758L8.71546 20.0263V12.3049H7.07045V21.2087L9.56198 22.0371C8.46492 23.2518 6.72818 23.7407 5.10893 23.2027L5.05684 23.1852C4.23264 22.2985 3.78026 21.1533 3.78026 19.9376V15.3043ZM16.1181 26.3598H2.27617C2.60243 25.4416 3.46069 24.7727 4.47939 24.7224C4.55243 24.7408 5.32394 25.0609 6.44869 25.0609C8.32439 25.0609 10.1159 24.1575 11.2214 22.5885L15.9426 24.1579C16.2334 24.2544 16.4864 24.4398 16.6656 24.6878C16.8448 24.9358 16.9411 25.2338 16.9408 25.5395C16.9408 25.9917 16.5718 26.3598 16.1181 26.3598H16.1181Z" fill="#A44AFF"/>
</svg>
