<svg width="28" height="28" viewBox="0 0 28 28" fill="none" xmlns="http://www.w3.org/2000/svg">
<path fill-rule="evenodd" clip-rule="evenodd" d="M1.51482 5.56186L13.5486 0.761864C13.7079 0.698291 13.8765 0.666504 14.0451 0.666504C14.2138 0.666504 14.3824 0.698291 14.5417 0.761864L26.5755 5.56186C27.0832 5.76436 27.416 6.25462 27.416 6.79984V11.3332L14.0451 5.99982L0.674316 11.3332V6.79984C0.674316 6.25464 1.00718 5.76436 1.51482 5.56186ZM14.0451 8.66649L0.674316 13.9998V25.9998C0.674316 26.7362 1.27296 27.3332 2.0114 27.3332H4.68557V20.3742C4.68557 19.7624 5.10314 19.229 5.69835 19.0806L8.37252 18.414C9.21642 18.2036 10.0339 18.8401 10.0339 19.7076V27.3332H26.0789C26.8174 27.3332 27.416 26.7362 27.416 25.9998V13.9998L14.0451 8.66649Z" fill="white"/>
</svg>
